# xmcd
#
# Track frame offsets: 
#        150
#        10918
#        23373
#        35840
#        47431
#        58152
#        71666
#        82828
#        94785
#        107894
#        122398
#        134372
#        145594
#        157197
#        167031
#        177915
#        190918
#        204802
#        215120
#        227110
#        238257
#        250440
#        261827
#        272450
#
# Disc length: 3798 seconds
#
# Revision: 0
# Processed by: cddbd v1.5.2PL0 Copyright (c) Steve Scherf et al.
# Submitted via: ExactAudioCopy v1.0b3
#
DISCID=510ed418
DTITLE=The Louvin Brothers - Complete Recorded Works 1952-62 CD2
DYEAR=2014
DGENRE=Country
TTITLE0=Are You Washed in the Blood
TTITLE1=Nearer, My God, To Thee
TTITLE2=Wait A Little Longer, Please Jesus
TTITLE3=I Can't Say No
TTITLE4=I Won't Have To Cross Jordan Alone
TTITLE5=There's No Excuse
TTITLE6=This Little Light Of Mine
TTITLE7=Praying
TTITLE8=Thankful
TTITLE9=Lord, I'm Coming Home
TTITLE10=Last Chance To Pray
TTITLE11=I Steal Away And Pray
TTITLE12=Don't Let Your Sweet Love Die
TTITLE13=We Could
TTITLE14=Tennessee Waltz
TTITLE15=Are You Teasing Me
TTITLE16=Too Late
TTITLE17=Here Today And Gone Tomorrow
TTITLE18=I Wonder Where You Are Tonight
TTITLE19=Have I Stayed Away Too Long
TTITLE20=Nobody's Darling But Mine
TTITLE21=Why Not Confess
TTITLE22=Making Believe
TTITLE23=Take Me Back Into Your Heart
EXTD=
EXTT0=
EXTT1=
EXTT2=
EXTT3=
EXTT4=
EXTT5=
EXTT6=
EXTT7=
EXTT8=
EXTT9=
EXTT10=
EXTT11=
EXTT12=
EXTT13=
EXTT14=
EXTT15=
EXTT16=
EXTT17=
EXTT18=
EXTT19=
EXTT20=
EXTT21=
EXTT22=
EXTT23=
PLAYORDER=
